<svg width="16" height="16" viewBox="0 0 16 16" fill="none" xmlns="http://www.w3.org/2000/svg">
<g id="bx:dollar">
<path id="Vector" d="M10.666 5.66665H11.9993C11.9993 3.77531 10.1627 2.91265 8.666 2.71398V1.33331H7.33266V2.71398C5.836 2.91265 3.99933 3.77531 3.99933 5.66665C3.99933 7.47065 5.77666 8.40865 7.33266 8.61998V11.9333C6.36733 11.766 5.33266 11.2506 5.33266 10.3333H3.99933C3.99933 12.0593 5.61599 13.0793 7.33266 13.2906V14.6666H8.666V13.2866C10.1627 13.088 11.9993 12.2246 11.9993 10.3333C11.9993 8.44198 10.1627 7.57931 8.666 7.38065V4.06665C9.55266 4.22598 10.666 4.69398 10.666 5.66665ZM5.33266 5.66665C5.33266 4.69398 6.446 4.22598 7.33266 4.06665V7.26598C6.41866 7.09731 5.33266 6.59798 5.33266 5.66665ZM10.666 10.3333C10.666 11.306 9.55266 11.774 8.666 11.9333V8.73331C9.55266 8.89265 10.666 9.36065 10.666 10.3333Z" fill="#05BCCA"/>
</g>
</svg>
