<svg width="32" height="32" viewBox="0 0 32 32" fill="none" xmlns="http://www.w3.org/2000/svg">
<g id="basil:instagram-solid">
<path id="Vector" d="M16 11.6666C14.8507 11.6666 13.7485 12.1232 12.9358 12.9358C12.1232 13.7485 11.6666 14.8507 11.6666 16C11.6666 17.1492 12.1232 18.2514 12.9358 19.0641C13.7485 19.8767 14.8507 20.3333 16 20.3333C17.1492 20.3333 18.2514 19.8767 19.0641 19.0641C19.8767 18.2514 20.3333 17.1492 20.3333 16C20.3333 14.8507 19.8767 13.7485 19.0641 12.9358C18.2514 12.1232 17.1492 11.6666 16 11.6666Z" fill="#D9D9D9"/>
<path id="Vector_2" fill-rule="evenodd" clip-rule="evenodd" d="M9.17249 4.37649C13.7103 3.87434 18.2898 3.87434 22.8276 4.37649C25.3066 4.65279 27.3053 6.6012 27.5964 9.08526C28.1345 13.6789 28.1345 18.3195 27.5964 22.9131C27.3053 25.3972 25.3066 27.3456 22.8289 27.6232C18.2906 28.1255 13.7107 28.1255 9.17249 27.6232C6.69342 27.3456 4.69477 25.3972 4.40365 22.9144C3.86545 18.3203 3.86545 13.6793 4.40365 9.08526C4.69477 6.6012 6.69342 4.65279 9.17249 4.37649ZM22.5273 8.17947C22.1811 8.17947 21.849 8.31678 21.6042 8.5612C21.3594 8.80561 21.2219 9.13711 21.2219 9.48276C21.2219 9.82841 21.3594 10.1599 21.6042 10.4043C21.849 10.6487 22.1811 10.786 22.5273 10.786C22.8735 10.786 23.2056 10.6487 23.4504 10.4043C23.6952 10.1599 23.8328 9.82841 23.8328 9.48276C23.8328 9.13711 23.6952 8.80561 23.4504 8.5612C23.2056 8.31678 22.8735 8.17947 22.5273 8.17947ZM9.79911 15.9992C9.79911 14.3573 10.4524 12.7827 11.6153 11.6218C12.7782 10.4608 14.3554 9.80858 16 9.80858C17.6446 9.80858 19.2218 10.4608 20.3847 11.6218C21.5476 12.7827 22.201 14.3573 22.201 15.9992C22.201 17.641 21.5476 19.2156 20.3847 20.3766C19.2218 21.5375 17.6446 22.1898 16 22.1898C14.3554 22.1898 12.7782 21.5375 11.6153 20.3766C10.4524 19.2156 9.79911 17.641 9.79911 15.9992Z" fill="#D9D9D9"/>
</g>
</svg>
